<?xml version="1.0" encoding="utf-8"?>
<!-- Generator: Adobe Illustrator 21.1.0, SVG Export Plug-In . SVG Version: 6.00 Build 0)  -->
<svg version="1.1" xmlns="http://www.w3.org/2000/svg" xmlns:xlink="http://www.w3.org/1999/xlink" x="0px" y="0px"
	 viewBox="0 0 907.1 510.2" style="enable-background:new 0 0 907.1 510.2;" xml:space="preserve">
<style type="text/css">
	.st0{fill:#FFFFFF;}
	.st1{fill:none;stroke:#D82A36;stroke-width:10;stroke-linecap:round;stroke-linejoin:round;stroke-miterlimit:10;}
	
		.st2{fill-rule:evenodd;clip-rule:evenodd;fill:none;stroke:#89B33D;stroke-width:6.5;stroke-linecap:round;stroke-linejoin:round;stroke-miterlimit:10;}
	
		.st3{fill-rule:evenodd;clip-rule:evenodd;fill:none;stroke:#EB5E42;stroke-width:6.5;stroke-linecap:round;stroke-linejoin:round;stroke-miterlimit:10;}
	.st4{fill:none;stroke:#50B5CA;stroke-width:10;stroke-linecap:round;stroke-linejoin:round;stroke-miterlimit:10;}
	.st5{fill:none;stroke:#E5A025;stroke-width:6.5;stroke-linecap:round;stroke-linejoin:round;stroke-miterlimit:10;}
	.st6{fill:none;stroke:#89B43B;stroke-width:6.5;stroke-linecap:round;stroke-linejoin:round;stroke-miterlimit:10;}
	.st7{fill:none;stroke:#89B33D;stroke-width:6.5;stroke-linecap:round;stroke-linejoin:round;stroke-miterlimit:10;}
	.st8{fill:none;stroke:#EB5E42;stroke-width:10;stroke-linecap:round;stroke-linejoin:round;stroke-miterlimit:10;}
	.st9{fill:none;stroke:#50B5CA;stroke-width:6.5;stroke-linecap:round;stroke-linejoin:round;stroke-miterlimit:10;}
	
		.st10{fill-rule:evenodd;clip-rule:evenodd;fill:none;stroke:#D82A36;stroke-width:10;stroke-linecap:round;stroke-linejoin:round;stroke-miterlimit:10;}
	.st11{fill:none;stroke:#EB5E42;stroke-width:6.5;stroke-linecap:round;stroke-linejoin:round;stroke-miterlimit:10;}
	
		.st12{fill-rule:evenodd;clip-rule:evenodd;fill:none;stroke:#50B5CA;stroke-width:6.5;stroke-linecap:round;stroke-linejoin:round;stroke-miterlimit:10;}
	
		.st13{fill-rule:evenodd;clip-rule:evenodd;fill:none;stroke:#E5A025;stroke-width:6.5;stroke-linecap:round;stroke-linejoin:round;stroke-miterlimit:10;}
	
		.st14{fill-rule:evenodd;clip-rule:evenodd;fill:none;stroke:#239B87;stroke-width:6.5;stroke-linecap:round;stroke-linejoin:round;stroke-miterlimit:10;}
	.st15{fill:none;stroke:#89B33D;stroke-width:10;stroke-linecap:round;stroke-linejoin:round;stroke-miterlimit:10;}
	.st16{fill:none;stroke:#E5A025;stroke-width:10;stroke-linecap:round;stroke-linejoin:round;stroke-miterlimit:10;}
	.st17{fill:none;stroke:#239B87;stroke-width:10;stroke-linecap:round;stroke-linejoin:round;stroke-miterlimit:10;}
	.st18{fill:none;stroke:#6A4B95;stroke-width:6.5;stroke-linecap:round;stroke-linejoin:round;stroke-miterlimit:10;}
	.st19{fill:none;stroke:#246C9C;stroke-width:6.5;stroke-linecap:round;stroke-linejoin:round;stroke-miterlimit:10;}
	.st20{fill:none;stroke:#BC4684;stroke-width:6.5;stroke-linecap:round;stroke-linejoin:round;stroke-miterlimit:10;}
	.st21{fill:none;stroke:#71181D;stroke-width:6.5;stroke-linecap:round;stroke-linejoin:round;stroke-miterlimit:10;}
	.st22{fill:none;stroke:#6B73A0;stroke-width:6.5;stroke-linecap:round;stroke-linejoin:round;stroke-miterlimit:10;}
	.st23{fill:none;stroke:#DFDB5F;stroke-width:6.5;stroke-linecap:round;stroke-linejoin:round;stroke-miterlimit:10;}
	.st24{fill:none;stroke:#239B87;stroke-width:6.5;stroke-linecap:round;stroke-linejoin:round;stroke-miterlimit:10;}
	.st25{fill:none;stroke:#6D79A7;stroke-width:6.5;stroke-linecap:round;stroke-linejoin:round;stroke-miterlimit:10;}
	.st26{display:none;}
	.st27{display:inline;opacity:0.5;fill:#DF5D42;}
	.st28{display:inline;}
	.st29{opacity:0.5;fill:#DF5D42;}
	.st30{display:inline;opacity:0.5;fill:#6C4A94;}
	.st31{display:inline;opacity:0.5;fill:#DD9C2C;}
	.st32{opacity:0.5;fill-rule:evenodd;clip-rule:evenodd;fill:#6A4A94;}
	.st33{opacity:0.5;fill-rule:evenodd;clip-rule:evenodd;fill:#E6B340;}
	.st34{display:inline;opacity:0.5;fill:#229C85;}
	.st35{opacity:0.5;fill:#229C85;}
	.st36{display:inline;opacity:0.5;fill:#89B43B;}
	.st37{opacity:0.5;fill:#DD9C2C;}
	.st38{opacity:0.5;fill:#4AACBE;}
	.st39{display:inline;opacity:0.5;fill:#8BB33D;}
	.st40{fill-rule:evenodd;clip-rule:evenodd;fill:#FFFFFF;stroke:#D72838;stroke-width:1.5;stroke-miterlimit:10;}
	.st41{fill-rule:evenodd;clip-rule:evenodd;fill:#FFFFFF;stroke:#4AACBE;stroke-width:1.5;stroke-miterlimit:10;}
	
		.st42{fill-rule:evenodd;clip-rule:evenodd;fill:#FFFFFF;stroke:#EB5E42;stroke-width:1.5;stroke-linecap:round;stroke-linejoin:round;stroke-miterlimit:10;}
	
		.st43{fill-rule:evenodd;clip-rule:evenodd;fill:none;stroke:#EB5E42;stroke-width:1.5;stroke-linecap:round;stroke-linejoin:round;stroke-miterlimit:10;}
	
		.st44{fill-rule:evenodd;clip-rule:evenodd;fill:#FFFFFF;stroke:#E5A025;stroke-width:1.5;stroke-linecap:round;stroke-linejoin:round;stroke-miterlimit:10;}
	.st45{fill-rule:evenodd;clip-rule:evenodd;fill:#FFFFFF;stroke:#DD9C2C;stroke-width:1.5;stroke-miterlimit:10;}
	.st46{fill-rule:evenodd;clip-rule:evenodd;fill:#FFFFFF;stroke:#6A74A1;stroke-width:1.5;stroke-miterlimit:10;}
	.st47{fill-rule:evenodd;clip-rule:evenodd;fill:#FFFFFF;stroke:#84AC3D;stroke-width:1.5;stroke-miterlimit:10;}
	
		.st48{fill-rule:evenodd;clip-rule:evenodd;fill:#FFFFFF;stroke:#50B5CA;stroke-width:1.5;stroke-linecap:round;stroke-linejoin:round;stroke-miterlimit:10;}
	.st49{fill-rule:evenodd;clip-rule:evenodd;fill:#FFFFFF;stroke:#DF5D42;stroke-width:1.5;stroke-miterlimit:10;}
	.st50{fill-rule:evenodd;clip-rule:evenodd;fill:#FFFFFF;stroke:#E72427;stroke-width:1.5;stroke-miterlimit:10;}
	.st51{fill-rule:evenodd;clip-rule:evenodd;fill:#FFFFFF;stroke:#84B443;stroke-width:1.5;stroke-miterlimit:10;}
	.st52{fill-rule:evenodd;clip-rule:evenodd;fill:#FFFFFF;stroke:#EB613B;stroke-width:1.5;stroke-miterlimit:10;}
	.st53{fill-rule:evenodd;clip-rule:evenodd;fill:#FFFFFF;stroke:#5BB4D1;stroke-width:1.5;stroke-miterlimit:10;}
	.st54{fill-rule:evenodd;clip-rule:evenodd;fill:#FFFFFF;stroke:#E6A02B;stroke-width:1.5;stroke-miterlimit:10;}
	
		.st55{fill-rule:evenodd;clip-rule:evenodd;fill:none;stroke:#239B86;stroke-width:1.5;stroke-linecap:round;stroke-linejoin:round;stroke-miterlimit:10;}
	
		.st56{fill-rule:evenodd;clip-rule:evenodd;fill:#FFFFFF;stroke:#239B86;stroke-width:1.5;stroke-linecap:round;stroke-linejoin:round;stroke-miterlimit:10;}
	
		.st57{fill-rule:evenodd;clip-rule:evenodd;fill:none;stroke:#6D4A94;stroke-width:1.5;stroke-linecap:round;stroke-linejoin:round;stroke-miterlimit:10;}
	
		.st58{fill-rule:evenodd;clip-rule:evenodd;fill:#FFFFFF;stroke:#6D4A94;stroke-width:1.5;stroke-linecap:round;stroke-linejoin:round;stroke-miterlimit:10;}
	.st59{fill-rule:evenodd;clip-rule:evenodd;fill:none;stroke:#2E77AE;stroke-width:1.5;stroke-miterlimit:10;}
	.st60{fill-rule:evenodd;clip-rule:evenodd;fill:#FFFFFF;stroke:#2E77AE;stroke-width:1.5;stroke-miterlimit:10;}
	
		.st61{fill-rule:evenodd;clip-rule:evenodd;fill:none;stroke:#D84D96;stroke-width:1.5;stroke-linecap:round;stroke-linejoin:round;stroke-miterlimit:22.926;}
	
		.st62{fill-rule:evenodd;clip-rule:evenodd;fill:#FFFFFF;stroke:#D84D96;stroke-width:1.5;stroke-linecap:round;stroke-linejoin:round;stroke-miterlimit:22.926;}
	
		.st63{fill-rule:evenodd;clip-rule:evenodd;fill:none;stroke:#781B1D;stroke-width:1.5;stroke-linecap:round;stroke-linejoin:round;stroke-miterlimit:10;}
	
		.st64{fill-rule:evenodd;clip-rule:evenodd;fill:#FFFFFF;stroke:#781B1D;stroke-width:1.5;stroke-linecap:round;stroke-linejoin:round;stroke-miterlimit:10;}
	.st65{fill-rule:evenodd;clip-rule:evenodd;fill:#FFFFFF;stroke:#717CAF;stroke-width:1.5;stroke-miterlimit:10;}
	.st66{font-family:'Inter-Regular-Adobe';}
	.st67{font-size:8px;}
	.st68{fill:none;}
	.st69{font-family:'NotoSansCJKsc-Medium-GBpc-EUC-H';}
	.st70{font-size:10px;}
	
		.st71{fill-rule:evenodd;clip-rule:evenodd;fill:#FFFFFF;stroke:#F1EC5A;stroke-width:1.5;stroke-linecap:round;stroke-linejoin:round;stroke-miterlimit:22.926;}
	.st72{font-family:'NotoSansCJKsc-Regular-GBpc-EUC-H';}
	.st73{font-size:12px;}
	.st74{font-family:'SourceHanSansSC-Regular-GBpc-EUC-H';}
	.st75{font-family:'NotoSansCJKsc-Bold-GBpc-EUC-H';}
	.st76{font-size:20px;}
	.st77{fill:#E72427;}
</style>
<g id="背景">
	<rect x="-8.5" y="-8.5" class="st0" width="924.1" height="527.2"/>
</g>
<g id="线路">
	<line class="st1" x1="52.7" y1="261.5" x2="517.3" y2="261.5"/>
	<path class="st15" d="M139.1,248h19.2c4.7,0,8.5-3.8,8.5-8.5v-77.7"/>
	<path class="st11" d="M212.8,248h16.5c2.3,0,4.4-0.9,6-2.5l24.7-24.7c1.6-1.6,3.8-2.5,6-2.5h49.1c2.3,0,4.4,0.9,6,2.5l24.7,24.7
		c1.6,1.6,3.8,2.5,6,2.5h15.6"/>
	<path class="st9" d="M365.8,248h15c2.3,0,4.4-0.9,6-2.5l24.8-24.8c1.6-1.6,3.8-2.5,6-2.5h47.4c2.3,0,4.4,0.9,6,2.5l24.6,24.6
		c1.6,1.6,3.8,2.5,6,2.5h15.5"/>
	<path class="st16" d="M524.1,237.9h18.1c2.3,0,4.4-0.9,6-2.5l43-43"/>
	<path class="st17" d="M522.1,273.5h19.8c2.3,0,4.4,0.9,6,2.5l80.7,80.7"/>
	<path class="st18" d="M591.8,147h10.2c4.7,0,8.5-3.8,8.5-8.5V76"/>
	<path class="st19" d="M591.8,161h31.6c4.7,0,8.5-3.8,8.5-8.5V79"/>
	<path class="st20" d="M591.8,192.4l16-16c1.6-1.6,3.8-2.5,6-2.5h47.6c2.3,0,4.4-0.9,6-2.5l84.3-84.3"/>
	<path class="st21" d="M589.8,210.3h127.1c2.3,0,4.4-0.9,6-2.5l88.9-88.9"/>
	<line class="st22" x1="591.2" y1="225.4" x2="786.5" y2="225.4"/>
	<path class="st23" d="M591.2,239.1h37.8c2.3,0,4.4,0.9,6,2.5l77.4,77.4"/>
</g>
<g id="延申" class="st26">
</g>
<g id="站点">
	<path class="st40" d="M138.2,266.2L138.2,266.2c-1.8,0-3.3-1.5-3.3-3.3v-15c0-1.8,1.5-3.3,3.3-3.3l0,0c1.8,0,3.3,1.5,3.3,3.3v15
		C141.5,264.7,140,266.2,138.2,266.2z"/>
	<path class="st40" d="M214.1,266.2L214.1,266.2c-1.8,0-3.3-1.5-3.3-3.3v-15c0-1.8,1.5-3.3,3.3-3.3h0c1.8,0,3.3,1.5,3.3,3.3v15
		C217.4,264.7,215.9,266.2,214.1,266.2z"/>
	<path class="st40" d="M366.3,266.2L366.3,266.2c-1.8,0-3.3-1.5-3.3-3.3v-15c0-1.8,1.5-3.3,3.3-3.3h0c1.8,0,3.3,1.5,3.3,3.3v15
		C369.6,264.7,368.1,266.2,366.3,266.2z"/>
	<g>
		<path class="st40" d="M520.7,278.4L520.7,278.4c-1.8,0-3.3-1.5-3.3-3.3v-39c0-1.8,1.5-3.3,3.3-3.3l0,0c1.8,0,3.3,1.5,3.3,3.3v39
			C524,276.9,522.5,278.4,520.7,278.4z"/>
		<circle class="st40" cx="520.9" cy="261.5" r="5.7"/>
	</g>
	<g>
		<path class="st44" d="M589.8,241.5L589.8,241.5c-1.8,0-3.3-1.5-3.3-3.3v-91.5c0-1.8,1.5-3.3,3.3-3.3l0,0c1.8,0,3.3,1.5,3.3,3.3
			v91.5C593.2,240,591.7,241.5,589.8,241.5z"/>
		<circle class="st44" cx="589.8" cy="194.5" r="5.7"/>
	</g>
	<circle class="st0" cx="82.1" cy="261.5" r="3.5"/>
	<circle class="st0" cx="166.8" cy="218.3" r="3.5"/>
	<circle class="st0" cx="166.8" cy="180" r="3.5"/>
	<circle class="st0" cx="290.2" cy="261.5" r="3.5"/>
	<circle class="st0" cx="442.4" cy="261.5" r="3.5"/>
	<circle class="st0" cx="550.2" cy="278.4" r="3.5"/>
	<circle class="st0" cx="616" cy="343.7" r="3.5"/>
	<circle class="st0" cx="594" cy="322" r="3.5"/>
	<circle class="st0" cx="572.1" cy="300.2" r="3.5"/>
	<circle class="st0" cx="565.7" cy="218.3" r="3.5"/>
	<circle class="st0" cx="266.3" cy="218.3" r="2.1"/>
	<circle class="st0" cx="314.1" cy="218.3" r="2.1"/>
	<circle class="st0" cx="442.4" cy="218.3" r="2.1"/>
	<circle class="st0" cx="634.9" cy="241.5" r="2.1"/>
	<circle class="st0" cx="701.3" cy="307.8" r="2.1"/>
	<circle class="st0" cx="679.1" cy="285.7" r="2.1"/>
	<circle class="st0" cx="657" cy="263.6" r="2.1"/>
	<circle class="st0" cx="797.2" cy="133.5" r="2.1"/>
	<circle class="st0" cx="722.4" cy="208.4" r="2.1"/>
	<circle class="st0" cx="747.6" cy="183.1" r="2.1"/>
	<circle class="st0" cx="772.4" cy="158.3" r="2.1"/>
	<circle class="st0" cx="667.5" cy="171.5" r="2.1"/>
	<circle class="st0" cx="737.8" cy="101.1" r="2.1"/>
	<circle class="st0" cx="714.4" cy="124.6" r="2.1"/>
	<circle class="st0" cx="690.9" cy="148.1" r="2.1"/>
	<circle class="st0" cx="631.3" cy="155.5" r="2.1"/>
	<circle class="st0" cx="632" cy="127.1" r="2.1"/>
	<circle class="st0" cx="632" cy="93.3" r="2.1"/>
	<circle class="st0" cx="610.6" cy="127.1" r="2.1"/>
	<circle class="st0" cx="610.6" cy="93.3" r="2.1"/>
	<circle class="st0" cx="767.1" cy="225.3" r="2.1"/>
	<circle class="st0" cx="669.1" cy="225.3" r="2.1"/>
	<circle class="st0" cx="718.1" cy="225.3" r="2.1"/>
</g>
<g id="路线名">
	<g>
		<circle class="st50" cx="79.4" cy="449" r="9"/>
		<text transform="matrix(1.0644 0 0 1 74.9515 451.9234)" class="st66 st67">T1</text>
	</g>
	<g>
		<circle class="st50" cx="52.7" cy="261.5" r="9"/>
		<text transform="matrix(1.0644 0 0 1 48.2247 264.4154)" class="st66 st67">T1</text>
	</g>
	<rect x="93.9" y="443.9" class="st68" width="101.1" height="10.1"/>
	<text transform="matrix(1 0 0 1 93.8976 452.7337)" class="st69 st70">测试开发</text>
	<g>
		<circle class="st51" cx="79.4" cy="478.7" r="9"/>
		<text transform="matrix(1.0644 0 0 1 74.0865 481.6734)" class="st66 st67">T2</text>
	</g>
	<g>
		<circle class="st51" cx="166.8" cy="158.9" r="9"/>
		<text transform="matrix(1.0644 0 0 1 161.4198 161.7893)" class="st66 st67">T2</text>
	</g>
	<rect x="93.9" y="473.7" class="st68" width="101.1" height="10.1"/>
	<text transform="matrix(1 0 0 1 93.8976 482.4837)" class="st69 st70">代码测试     </text>
	<g>
		<circle class="st52" cx="207.6" cy="449" r="9"/>
		<text transform="matrix(1.0644 0 0 1 202.2201 451.9234)" class="st66 st67">T3</text>
	</g>
	<g>
		<circle class="st52" cx="230.8" cy="226.2" r="9"/>
		<text transform="matrix(1.0644 0 0 1 225.3932 229.1654)" class="st66 st67">T3</text>
	</g>
	<rect x="221.8" y="443.9" class="st68" width="101.1" height="10.1"/>
	<text transform="matrix(1 0 0 1 221.8315 452.7337)"><tspan x="0" y="0" class="st66 st70">DevOps</tspan><tspan x="37.7" y="0" class="st69 st70">工作流</tspan></text>
	<g>
		<circle class="st53" cx="207.6" cy="478.7" r="9"/>
		<text transform="matrix(1.0644 0 0 1 202.0995 481.6734)" class="st66 st67">T4</text>
	</g>
	<g>
		<circle class="st53" cx="384.5" cy="226.2" r="9"/>
		<text transform="matrix(1.0644 0 0 1 379.0221 229.1654)" class="st66 st67">T4</text>
	</g>
	<rect x="221.8" y="473.7" class="st68" width="101.1" height="10.1"/>
	<text transform="matrix(1 0 0 1 221.7717 482.3216)" class="st66 st70">vTESTstudio</text>
	<g>
		<circle class="st54" cx="335.3" cy="449" r="9"/>
		<text transform="matrix(1.0644 0 0 1 329.9906 451.9234)" class="st66 st67">T5</text>
	</g>
	<g>
		<circle class="st54" cx="551.6" cy="252.6" r="9"/>
		<text transform="matrix(1.0644 0 0 1 546.3329 255.5412)" class="st66 st67">T5</text>
	</g>
	<rect x="349.5" y="443.9" class="st68" width="101.1" height="10.1"/>
	<text transform="matrix(1 0 0 1 349.5221 452.7337)"><tspan x="0" y="0" class="st66 st70">HIL</tspan><tspan x="15.8" y="0" class="st69 st70">测试</tspan></text>
	<g>
		<circle class="st55" cx="335.3" cy="474.8" r="9"/>
		<text transform="matrix(1.0644 0 0 1 329.8764 477.7092)" class="st66 st67">T6</text>
	</g>
	<g>
		<circle class="st56" cx="629.8" cy="359.7" r="9"/>
		<text transform="matrix(1.0644 0 0 1 624.4588 362.6654)" class="st66 st67">T6</text>
	</g>
	<rect x="349.5" y="469.7" class="st68" width="101.1" height="10.1"/>
	<text transform="matrix(1 0 0 1 349.5221 478.5195)"><tspan x="0" y="0" class="st66 st70">SIL</tspan><tspan x="14.8" y="0" class="st69 st70">测试</tspan></text>
	<g>
		<ellipse transform="matrix(1 -6.751167e-03 6.751167e-03 1 -3.0206 3.1356)" class="st57" cx="462.9" cy="449" rx="9" ry="9"/>
		<text transform="matrix(1.0644 -7.184699e-03 6.750000e-03 1 457.7887 451.9932)" class="st66 st67">T7</text>
	</g>
	<g>
		<ellipse transform="matrix(1 -6.751167e-03 6.751167e-03 1 -0.4788 4.1239)" class="st58" cx="610.6" cy="73" rx="9" ry="9"/>
		<text transform="matrix(1.0644 -7.184699e-03 6.750000e-03 1 605.4553 75.9844)" class="st66 st67">T7</text>
	</g>
	<rect x="477.7" y="443.9" class="st68" width="101.1" height="10.1"/>
	<text transform="matrix(1 0 0 1 477.7152 452.7337)"><tspan x="0" y="0" class="st66 st70">CAN</tspan><tspan x="21.7" y="0" class="st69 st70">一致性测试</tspan></text>
	<g>
		<circle class="st59" cx="462.9" cy="478.7" r="9"/>
		<text transform="matrix(1.0644 0 0 1 457.5494 481.6734)" class="st66 st67">T8</text>
	</g>
	<g>
		<circle class="st60" cx="632" cy="73" r="9"/>
		<text transform="matrix(1.0644 0 0 1 626.5911 75.9146)" class="st66 st67">T8</text>
	</g>
	<rect x="477.7" y="473.7" class="st68" width="101.1" height="10.1"/>
	<text transform="matrix(1 0 0 1 477.7152 482.4837)"><tspan x="0" y="0" class="st66 st70">LIN</tspan><tspan x="15.9" y="0" class="st69 st70">一致性测试</tspan></text>
	<g>
		<circle class="st61" cx="590.6" cy="449" r="9"/>
		<text transform="matrix(1.0644 0 0 1 585.2099 451.9234)" class="st66 st67">T9</text>
	</g>
	<g>
		<circle class="st62" cx="755.5" cy="81.1" r="9"/>
		<text transform="matrix(1.0644 0 0 1 750.077 84.0317)" class="st66 st67">T9</text>
	</g>
	<rect x="604.9" y="443.9" class="st68" width="101.1" height="10.1"/>
	<text transform="matrix(1 0 0 1 604.9126 452.7337)" class="st69 st70">以太网测试</text>
	<g>
		<circle class="st63" cx="590.6" cy="478.7" r="9"/>
		<text transform="matrix(1.0644 0 0 1 583.4318 481.6734)" class="st66 st67">T10</text>
	</g>
	<g>
		<circle class="st64" cx="815" cy="115.4" r="9"/>
		<text transform="matrix(1.0644 0 0 1 807.8416 118.3676)" class="st66 st67">T10</text>
	</g>
	<rect x="604.9" y="473.7" class="st68" width="101.1" height="10.1"/>
	<text transform="matrix(1 0 0 1 604.8518 482.4837)"><tspan x="0" y="0" class="st66 st70">J1939</tspan><tspan x="28.4" y="0" class="st69 st70">一致性测试</tspan></text>
	<g>
		<circle class="st65" cx="718.1" cy="449" r="9"/>
		<text transform="matrix(1.0644 0 0 1 711.8868 451.9234)" class="st66 st67">T11</text>
	</g>
	<g>
		<circle class="st65" cx="791.5" cy="225.1" r="9"/>
		<text transform="matrix(1.0644 0 0 1 785.2684 228.0758)" class="st66 st67">T11</text>
	</g>
	<rect x="733.2" y="443.9" class="st68" width="101.1" height="10.1"/>
	<text transform="matrix(1 0 0 1 733.1985 452.7337)" class="st69 st70">诊断测试</text>
	<g>
		<circle class="st71" cx="718.1" cy="478.7" r="9"/>
		<text transform="matrix(1.0644 0 0 1 711.0214 481.6734)" class="st66 st67">T12</text>
	</g>
	<g>
		<circle class="st71" cx="716.2" cy="323.8" r="9"/>
		<text transform="matrix(1.0644 0 0 1 709.0875 326.7096)" class="st66 st67">T12</text>
	</g>
	<rect x="733.2" y="473.7" class="st68" width="101.1" height="10.1"/>
	<text transform="matrix(1 0 0 1 733.199 482.4847)" class="st69 st70">网络安全测试</text>
</g>
<g id="站点文字">
	<text transform="matrix(0.711 -0.7032 0.7032 0.711 57.3063 309.0526)" class="st72 st73">测试概论</text>
	<text transform="matrix(0.711 -0.7032 0.7032 0.711 102.4108 319.1161)" class="st72 st73">测试工具链</text>
	<text transform="matrix(0.711 -0.7032 0.7032 0.711 186.0759 312.2684)"><tspan x="0" y="0" class="st66 st73">CAN</tspan><tspan x="26.1" y="0" class="st72 st73">协议</tspan></text>
	<text transform="matrix(0.711 -0.7032 0.7032 0.711 323.2858 326.8046)" class="st72 st73">测试开发工具</text>
	<text transform="matrix(0.711 -0.7032 0.7032 0.711 383.4938 341.7977)" class="st72 st73">VS Code测试开发</text>
	<text transform="matrix(0.711 -0.7032 0.7032 0.711 243.9528 330.7499)"><tspan x="0" y="0" class="st66 st73">CANoe</tspan><tspan x="40.3" y="0" class="st72 st73">桌面版</tspan></text>
	<text transform="matrix(0.711 -0.7032 0.7032 0.711 482.8239 305.6854)" class="st66 st73">HIL&amp;SIL</text>
	<text transform="matrix(0.711 -0.7032 0.7032 0.711 520.6657 314.7723)" class="st66 st73">SIL Kit</text>
	<text transform="matrix(0.711 -0.7032 0.7032 0.711 520.6657 357.1512)" class="st66 st73">SIL Adapter</text>
	<text transform="matrix(0.711 -0.7032 0.7032 0.711 548.2946 418.5048)" class="st66 st73">vVIRTUALtarget</text>
	<text transform="matrix(0.711 -0.7032 0.7032 0.711 557.006 366.8417)"><tspan x="0" y="0" class="st66 st73">ASR</tspan><tspan x="23.7" y="0" class="st72 st73">概论</tspan></text>
	<text transform="matrix(0.711 -0.7032 0.7032 0.711 181.0124 184.3612)" class="st74 st73">单元&amp;集成测试</text>
	<text transform="matrix(0.711 -0.7032 0.7032 0.711 182.0539 225.1385)" class="st72 st73">静态代码分析</text>
	<text transform="matrix(0.711 -0.7032 0.7032 0.711 265.8273 211.2274)"><tspan x="0" y="0" class="st66 st70">DevOps</tspan><tspan x="37.7" y="0" class="st72 st70">工作流</tspan></text>
	<text transform="matrix(0.711 -0.7032 0.7032 0.711 314.0978 212.37)"><tspan x="0" y="0" class="st66 st70">CANoe</tspan><tspan x="33.6" y="0" class="st72 st70">服务器版</tspan></text>
	<text transform="matrix(0.711 -0.7032 0.7032 0.711 440.8757 212.7899)" class="st66 st73">vTESTstudio</text>
	<rect x="462.7" y="203.1" class="st68" width="109.1" height="10.7"/>
	<text transform="matrix(1 0 0 1 473.9397 213.4809)" class="st66 st73">VT/VIO System</text>
	<rect x="480.8" y="181" class="st68" width="102.1" height="10.7"/>
	<text transform="matrix(1 0 0 1 493.9654 191.5848)"><tspan x="0" y="0" class="st66 st73"> VT System</tspan><tspan x="65" y="0" class="st74 st73">配置</tspan></text>
	<rect x="529.8" y="87.6" class="st68" width="73.6" height="10.7"/>
	<text transform="matrix(1 0 0 1 531.673 96.3978)"><tspan x="0" y="0" class="st66 st70">CAN</tspan><tspan x="21.7" y="0" class="st74 st70">一致性测试</tspan></text>
	<rect x="679.7" y="166.2" class="st68" width="85.3" height="10.7"/>
	<text transform="matrix(1 0 0 1 679.7452 175.0136)"><tspan x="0" y="0" class="st66 st70">ETH</tspan><tspan x="19.9" y="0" class="st74 st70">基础协议</tspan></text>
	<rect x="703.2" y="142.7" class="st68" width="89.6" height="10.7"/>
	<text transform="matrix(1 0 0 1 703.1974 151.5335)"><tspan x="0" y="0" class="st66 st70">ETH</tspan><tspan x="19.9" y="0" class="st74 st70">应用协议</tspan></text>
	<rect x="716.2" y="120" class="st68" width="78.6" height="10.7"/>
	<text transform="matrix(1 0 0 1 727.2946 128.6839)" class="st66 st70">CANoe.ETH</text>
	<rect x="743.7" y="95.8" class="st68" width="73.6" height="10.7"/>
	<text transform="matrix(1 0 0 1 745.217 104.5752)"><tspan x="0" y="0" class="st66 st70">TC8&amp;TC10</tspan><tspan x="50.5" y="0" class="st74 st70">测试</tspan></text>
	<rect x="530.4" y="121.8" class="st68" width="73.6" height="10.7"/>
	<text transform="matrix(1 0 0 1 567.0912 130.4547)" class="st66 st70">VH6501</text>
	<rect x="638.7" y="87.6" class="st68" width="73.6" height="9.9"/>
	<text transform="matrix(1 0 0 1 638.6727 96.3979)"><tspan x="0" y="0" class="st66 st70">LIN</tspan><tspan x="15.9" y="0" class="st74 st70">一致性测试</tspan></text>
	<rect x="639" y="121.8" class="st68" width="73.6" height="10.7"/>
	<text transform="matrix(1 0 0 1 638.9737 130.4548)" class="st66 st70">CANoe.LIN</text>
	<rect x="638.8" y="150.2" class="st68" width="73.6" height="10.7"/>
	<text transform="matrix(1 0 0 1 638.7549 158.9869)"><tspan x="0" y="0" class="st66 st70">LIN</tspan><tspan x="15.9" y="0" class="st74 st70">协议</tspan></text>
	<rect x="735.4" y="203" class="st68" width="85.3" height="10.7"/>
	<text transform="matrix(1 0 0 1 735.3964 211.846)"><tspan x="0" y="0" class="st66 st70">J1939</tspan><tspan x="28.4" y="0" class="st74 st70">协议</tspan></text>
	<rect x="759.1" y="179" class="st68" width="85.3" height="10.7"/>
	<text transform="matrix(1 0 0 1 759.1255 187.6721)" class="st66 st70">J1939-82</text>
	<rect x="784.5" y="153.7" class="st68" width="85.3" height="10.7"/>
	<text transform="matrix(1 0 0 1 784.5005 162.2995)" class="st66 st70">CANoe.J1939</text>
	<rect x="802.2" y="128.7" class="st68" width="85.3" height="9.5"/>
	<text transform="matrix(1 0 0 1 805.6401 137.4976)"><tspan x="0" y="0" class="st66 st70">J1939</tspan><tspan x="28.4" y="0" class="st74 st70">一致性测试</tspan></text>
	<text transform="matrix(0.7032 0.711 -0.711 0.7032 760.3726 237.375)" class="st74 st70">诊断测试</text>
	<text transform="matrix(0.7032 0.711 -0.711 0.7032 712.2368 236.2617)" class="st66 st70">CANoe.DiVa</text>
	<text transform="matrix(0.7032 0.711 -0.711 0.7032 663.3804 237.3747)"><tspan x="0" y="0" class="st66 st70">UDS</tspan><tspan x="21.1" y="0" class="st74 st70">协议</tspan></text>
	<text transform="matrix(0.711 -0.7032 0.7032 0.711 594.0439 292.5966)"><tspan x="0" y="0" class="st66 st70">Security</tspan><tspan x="39" y="0" class="st74 st70">概论</tspan></text>
	<text transform="matrix(0.711 -0.7032 0.7032 0.711 615.6879 313.3856)"><tspan x="0" y="0" class="st66 st70">Security</tspan><tspan x="39" y="0" class="st74 st70">协议</tspan></text>
	<text transform="matrix(0.711 -0.7032 0.7032 0.711 623.1879 344.3954)" class="st66 st70">CANoe.Security</text>
	<text transform="matrix(0.711 -0.7032 0.7032 0.711 656.1262 355.9969)" class="st74 st70">网络安全测试</text>
</g>
<g id="路线序号">
</g>
<g id="标题">
	<text transform="matrix(1 0 0 1 69.6919 72.9774)" class="st75 st76">网络测试</text>
	<text transform="matrix(1 0 0 1 149.6919 72.9774)" class="st75 st76">工程师</text>
	<g>
		<polygon class="st77" points="860.9,26 860.9,22.5 873,29.5 860.9,36.5 860.9,33 866.9,29.5 		"/>
		<path class="st77" d="M775.5,23.4l-3.5,6.4l-3.5-6.4H765l7,12.4l7-12.4H775.5z M802.9,32.8c-1.9,0-3.4-1.5-3.4-3.3
			s1.5-3.3,3.4-3.3c0.9,0,1.7,0.4,2.4,1l2.1-2.1c-1.1-1.1-2.7-1.9-4.5-1.9c-3.5,0-6.4,2.8-6.4,6.4s2.9,6.4,6.4,6.4
			c1.7,0,3.3-0.7,4.5-1.9l-2.1-2.1C804.7,32.5,803.8,32.8,802.9,32.8L802.9,32.8z M809.8,26.2h4.1v9.4h3v-9.4h4.1v-2.7h-11.2V26.2z
			 M782.9,35.5h9.4v-2.7h-6.4v-2.1h5V28h-5v-1.9h6.4v-2.7h-9.4V35.5z M829.5,23.1c-3.5,0-6.4,2.8-6.4,6.4c0,3.5,2.9,6.4,6.4,6.4
			c3.5,0,6.4-2.8,6.4-6.4C835.9,26,833,23.1,829.5,23.1 M829.5,32.8c-1.9,0-3.4-1.5-3.4-3.3c0-1.9,1.5-3.3,3.4-3.3
			c1.9,0,3.3,1.5,3.3,3.3C832.9,31.3,831.4,32.8,829.5,32.8 M851.8,27.5c0-2.2-1.8-4.1-4.1-4.1h-7.5v12.1h3v-4h2.6l2.3,4h3.5
			l-2.5-4.3C850.8,30.6,851.8,29.2,851.8,27.5L851.8,27.5z M847.5,28.8h-4.2v-2.7h4.2c0.7,0,1.3,0.6,1.3,1.4
			C848.8,28.2,848.2,28.8,847.5,28.8"/>
	</g>
</g>
</svg>
